<?xml version="1.0" encoding="iso-8859-1"?>
<!-- Uploaded to: SVG Repo, www.svgrepo.com, Generator: SVG Repo Mixer Tools -->
<svg fill="#000000" height="800px" width="800px" version="1.1" id="Layer_1" xmlns="http://www.w3.org/2000/svg" xmlns:xlink="http://www.w3.org/1999/xlink" 
	 viewBox="0 0 508 508" xml:space="preserve">
<g>
	<g>
		<path d="M477.7,311.3v-39.9c0-37.6-23.5-69.6-56.6-82.5V40.8c0-22.5-18.3-40.8-40.8-40.8H40.8C18.3,0,0,18.3,0,40.8v328.9
			c0,22.5,18.3,40.8,40.8,40.8h4.8v7.2c0,7.8,6.3,14.1,14.1,14.1s14.1-6.3,14.1-14.1v-7.2h196.7v55.2c0,23.3,19,42.3,42.3,42.3
			h152.9c23.3,0,42.3-19,42.3-42.3V351.8C508,332.7,495.2,316.5,477.7,311.3z M449.5,271.4v38.1H328.9v-38.1
			c0-33.2,27-60.3,60.3-60.3S449.5,238.1,449.5,271.4z M40.8,382.2c-6.9,0-12.5-5.6-12.5-12.5V40.8c0-6.9,5.6-12.5,12.5-12.5h339.6
			c6.9,0,12.5,5.6,12.5,12.5v142.3c-10.7-0.8-22.1,1.1-34,5.3v-112c0-7.8-6.3-14.1-14.1-14.1H76.3c-7.8,0-14.1,6.3-14.1,14.1v257.8
			c0,7.8,6.3,14.1,14.1,14.1h194.1v33.9H40.8z M90.4,319.9V90.4h240.2v114.7c-18.3,16.2-30,39.8-30,66.2v39.9
			c-5.9,1.8-11.2,4.8-15.7,8.7H90.4z M479.8,465.7c0,7.8-6.3,14.1-14.1,14.1H312.8c-7.8,0-14.1-6.3-14.1-14.1V351.8
			c0-7.8,6.3-14.1,14.1-14.1h152.9c7.8,0,14.1,6.3,14.1,14.1V465.7z"/>
	</g>
</g>
<g>
	<g>
		<path d="M129.6,151.2c-7.8,0-14.1,6.3-14.1,14.1v79.9c0,7.8,6.3,14.1,14.1,14.1c7.8,0,14.1-6.3,14.1-14.1v-79.9
			C143.8,157.5,137.4,151.2,129.6,151.2z"/>
	</g>
</g>
<g>
	<g>
		<path d="M389.2,394.6c-7.8,0-14.1,6.3-14.1,14.1V435c0,7.8,6.3,14.1,14.1,14.1s14.1-6.3,14.1-14.1v-26.3
			C403.3,401,397,394.6,389.2,394.6z"/>
	</g>
</g>
</svg>